<?xml version="1.0" encoding="UTF-8" standalone="no"?>
<!-- Generator: Adobe Illustrator 19.0.0, SVG Export Plug-In . SVG Version: 6.00 Build 0)  -->

<svg
   version="1.1"
   id="Layer_1"
   x="0px"
   y="0px"
   viewBox="0 0 507.733 507.733"
   style="enable-background:new 0 0 507.733 507.733;"
   xml:space="preserve"
   sodipodi:docname="broomstick.svg"
   inkscape:version="1.1.2 (0a00cf5339, 2022-02-04, custom)"
   xmlns:inkscape="http://www.inkscape.org/namespaces/inkscape"
   xmlns:sodipodi="http://sodipodi.sourceforge.net/DTD/sodipodi-0.dtd"
   xmlns="http://www.w3.org/2000/svg"
   xmlns:svg="http://www.w3.org/2000/svg"><defs
   id="defs59">
	
	
	
	
	
	
</defs><sodipodi:namedview
   id="namedview57"
   pagecolor="#ffffff"
   bordercolor="#666666"
   borderopacity="1.0"
   inkscape:pageshadow="2"
   inkscape:pageopacity="0.0"
   inkscape:pagecheckerboard="0"
   showgrid="false"
   inkscape:zoom="0.87738488"
   inkscape:cx="317.42056"
   inkscape:cy="356.17208"
   inkscape:window-width="1920"
   inkscape:window-height="1019"
   inkscape:window-x="0"
   inkscape:window-y="0"
   inkscape:window-maximized="1"
   inkscape:current-layer="Layer_1" />

<g
   id="g1128"
   transform="matrix(-0.7311119,0,0,-0.75007916,444.17381,446.34947)"><path
     id="polygon2"
     style="fill:#aab1ba"
     transform="translate(1,1)"
     d="m 307.053,232.387 -35.84,-35.84 -11.946,-11.947 17.92,-41.813 v 0 l 83.626,83.626 -41.813,17.92 z" /><path
     style="fill:#ecf4f7"
     d="m 308.053,233.387 v 0 L 47.787,493.653 c -10.24,10.24 -26.453,10.24 -35.84,0 -10.24,-10.24 -10.24,-26.453 0,-35.84 L 272.214,197.546 v 0 z"
     id="path1088" /><path
     style="fill:#c49ae9"
     d="m 430.08,41.387 c 5.973,5.12 11.947,10.24 17.92,16.213 19.627,19.627 32.427,40.96 39.253,59.733 11.947,29.013 11.947,51.2 11.947,51.2 l -137.387,58.88 -83.627,-83.627 h -0.853 L 336.213,6.4 c 0,0 26.453,0 59.733,15.36 11.094,5.12 22.187,11.093 34.134,19.627"
     id="path1085" /><path
     id="circle8"
     style="fill:#ffd0a1"
     d="m 294.4,305.06699 a 8.533,8.533 0 0 1 -8.533,8.533 8.533,8.533 0 0 1 -8.533,-8.533 8.533,8.533 0 0 1 8.533,-8.533 8.533,8.533 0 0 1 8.533,8.533 z" /><g
     id="g14"
     transform="translate(1,1)">
		<path
   id="circle10"
   style="fill:#7ee1e6"
   d="m 438.46601,261.39999 a 8.533,8.533 0 0 1 -8.533,8.533 8.533,8.533 0 0 1 -8.533,-8.533 8.533,8.533 0 0 1 8.533,-8.533 8.533,8.533 0 0 1 8.533,8.533 z" />
		<path
   id="circle12"
   style="fill:#7ee1e6"
   d="M 233.666,31 A 8.533,8.533 0 0 1 225.133,39.533 8.533,8.533 0 0 1 216.6,31 8.533,8.533 0 0 1 225.133,22.467 8.533,8.533 0 0 1 233.666,31 Z" />
	</g><g
     id="g20"
     transform="translate(1,1)">
		<path
   id="circle16"
   style="fill:#c49ae9"
   d="m 506.73301,39.533001 a 8.533,8.533 0 0 1 -8.533,8.533 8.533,8.533 0 0 1 -8.533,-8.533 8.533,8.533 0 0 1 8.533,-8.533 8.533,8.533 0 0 1 8.533,8.533 z" />
		<path
   id="circle18"
   style="fill:#c49ae9"
   d="m 114.2,116.333 a 8.533,8.533 0 0 1 -8.533,8.533 8.533,8.533 0 0 1 -8.533,-8.533 8.533,8.533 0 0 1 8.533,-8.533 8.533,8.533 0 0 1 8.533,8.533 z" />
	</g><path
     style="fill:#51565f"
     d="m 29.867,505.6 c -7.68,0 -15.36,-2.56 -21.333,-8.533 C 2.56,491.093 0,484.267 0,475.733 0,467.2 3.413,460.373 8.533,454.4 L 243.2,219.733 c 1.707,-1.707 4.267,-1.707 5.973,0 1.707,1.707 1.707,4.267 0,5.973 L 14.507,460.373 c -4.267,4.267 -5.973,9.387 -5.973,15.36 0,5.973 2.56,11.093 5.973,15.36 8.533,8.533 22.187,8.533 29.867,0 L 279.04,256.427 c 1.707,-1.707 4.267,-1.707 5.973,0 1.707,1.707 1.707,4.267 0,5.973 L 50.347,497.067 c -5.12,5.973 -12.8,8.533 -20.48,8.533 z M 448,352 c -2.56,0 -4.267,-1.707 -4.267,-4.267 v -12.8 h -12.8 c -2.56,0 -4.267,-1.707 -4.267,-4.267 0,-2.56 1.707,-4.267 4.267,-4.267 h 12.8 v -12.8 c 0,-2.56 1.707,-4.267 4.267,-4.267 2.56,0 4.267,1.707 4.267,4.267 v 12.8 h 12.8 c 2.56,0 4.267,1.707 4.267,4.267 0,2.56 -1.707,4.267 -4.267,4.267 h -12.8 v 12.8 c 0,2.56 -1.707,4.267 -4.267,4.267 z M 320,249.6 c -0.853,0 -2.56,-0.853 -3.413,-0.853 l -59.733,-59.733 c -0.853,-0.853 -1.707,-3.413 -0.853,-5.12 l 76.8,-179.2 c 0.853,-1.707 2.56,-2.56 4.267,-2.56 2.56,0 62.293,0.853 114.347,52.053 52.054,51.2 52.053,111.787 52.053,114.347 0,1.707 -0.853,3.413 -2.56,4.267 L 363.52,231.68 v 0 l -41.813,17.92 c -0.854,0 -0.854,0 -1.707,0 z m -54.613,-64.853 55.467,55.467 33.28,-14.507 -54.613,-54.613 c -0.853,-0.853 -0.853,-1.707 -0.853,-3.413 0,-1.706 0,-2.56 0.853,-3.413 1.707,-1.707 4.267,-1.707 5.973,0 l 57.173,57.173 132.267,-56.32 c 0,-5.973 -2.56,-22.187 -9.387,-41.813 l -34.987,23.04 c -1.707,0.853 -4.267,0.853 -5.973,-0.853 -0.853,-0.853 -0.853,-1.707 -0.853,-2.56 0,-1.707 0.853,-2.56 1.707,-3.413 l 36.693,-23.893 c -7.68,-17.067 -18.773,-36.693 -37.547,-55.467 -5.12,-5.12 -10.24,-9.387 -14.507,-13.653 l -56.32,56.32 c -1.707,1.707 -4.267,1.707 -5.973,0 -0.853,-0.853 -0.853,-1.707 -0.853,-3.413 0,-1.707 0,-2.56 0.853,-3.413 l 55.467,-55.467 c -8.533,-5.973 -17.067,-11.093 -24.747,-15.36 l -23.893,33.28 c -1.707,1.707 -4.267,2.56 -5.973,0.853 -0.853,-0.853 -1.707,-2.56 -1.707,-3.413 0,-0.853 0,-1.707 0.853,-2.56 L 389.974,21.763 C 366.081,11.523 346.454,9.816 339.627,8.963 Z M 140.8,241.067 c -2.56,0 -4.267,-1.707 -4.267,-4.267 v -4.267 h -4.267 c -2.56,0 -4.267,-1.707 -4.267,-4.267 0,-2.56 1.707,-4.267 4.267,-4.267 h 4.267 v -4.267 c 0,-2.56 1.707,-4.267 4.267,-4.267 2.56,0 4.267,1.707 4.267,4.267 V 224 h 4.267 c 2.56,0 4.267,1.707 4.267,4.267 0,2.56 -1.707,4.267 -4.267,4.267 h -4.267 v 4.267 c 0,2.559 -1.707,4.266 -4.267,4.266 z M 192,96 c -2.56,0 -4.267,-1.707 -4.267,-4.267 v -12.8 h -12.8 c -2.56,0 -4.267,-1.707 -4.267,-4.267 0,-2.56 1.707,-4.267 4.267,-4.267 h 12.8 V 57.6 c 0,-2.56 1.707,-4.267 4.267,-4.267 2.56,0 4.267,1.707 4.267,4.267 v 12.8 h 12.8 c 2.56,0 4.267,1.707 4.267,4.267 0,2.56 -1.707,4.267 -4.267,4.267 h -12.8 v 12.8 C 196.267,94.293 194.56,96 192,96 Z"
     id="path1067" /></g>
<g
   id="g26">
</g>
<g
   id="g28">
</g>
<g
   id="g30">
</g>
<g
   id="g32">
</g>
<g
   id="g34">
</g>
<g
   id="g36">
</g>
<g
   id="g38">
</g>
<g
   id="g40">
</g>
<g
   id="g42">
</g>
<g
   id="g44">
</g>
<g
   id="g46">
</g>
<g
   id="g48">
</g>
<g
   id="g50">
</g>
<g
   id="g52">
</g>
<g
   id="g54">
</g>
</svg>
