<?xml version="1.0" encoding="UTF-8" standalone="no"?>
<!-- Generator: Adobe Illustrator 19.0.0, SVG Export Plug-In . SVG Version: 6.00 Build 0)  -->

<svg
   version="1.1"
   id="Layer_1"
   x="0px"
   y="0px"
   viewBox="0 0 507.733 507.733"
   style="enable-background:new 0 0 507.733 507.733;"
   xml:space="preserve"
   sodipodi:docname="broomstick.svg"
   inkscape:version="1.1.2 (0a00cf5339, 2022-02-04, custom)"
   xmlns:inkscape="http://www.inkscape.org/namespaces/inkscape"
   xmlns:sodipodi="http://sodipodi.sourceforge.net/DTD/sodipodi-0.dtd"
   xmlns="http://www.w3.org/2000/svg"
   xmlns:svg="http://www.w3.org/2000/svg"><defs
   id="defs59">
	
	
	
	
	
	
</defs><sodipodi:namedview
   id="namedview57"
   pagecolor="#ffffff"
   bordercolor="#666666"
   borderopacity="1.0"
   inkscape:pageshadow="2"
   inkscape:pageopacity="0.0"
   inkscape:pagecheckerboard="0"
   showgrid="false"
   inkscape:zoom="0.43869244"
   inkscape:cx="-10.257756"
   inkscape:cy="324.82894"
   inkscape:window-width="1920"
   inkscape:window-height="1019"
   inkscape:window-x="0"
   inkscape:window-y="0"
   inkscape:window-maximized="1"
   inkscape:current-layer="g1128" />

<g
   id="g1128"
   transform="matrix(-0.7311119,0,0,-0.75007916,444.17381,446.34947)"><g
     id="g6990"><path
       style="fill:#51565f;stroke-width:3.55123;stroke-miterlimit:4;stroke-dasharray:none"
       d="m 23.309739,531.88855 c -9.199185,0.0814 -18.4264198,-2.83098 -25.6463885,-9.75262 -7.2211849,-6.9228 -10.3623675,-14.87812 -10.4558615,-24.85793 -0.09348,-9.97864 3.9198595,-17.99842 9.9872171,-25.03759 L 275.71069,195.33045 c 2.02597,-2.01428 5.09236,-2.04141 7.15452,-0.0633 2.06337,1.97813 2.09141,4.97182 0.0654,6.98496 L 4.4158783,479.16204 c -5.06431832,5.03513 -7.0516911,11.04063 -6.9862536,18.02555 0.065438,6.98491 3.18792598,12.94523 7.3228085,17.89896 10.3143968,9.88824 26.6693208,9.74358 35.7750358,-0.31643 L 319.04227,237.86135 c 2.02596,-2.01427 5.09236,-2.04139 7.15451,-0.0633 2.06338,1.97812 2.09143,4.97181 0.0654,6.98492 L 47.74744,521.69292 c -6.067357,7.03918 -15.2385,10.11427 -24.437701,10.19563 z"
       id="path1067" /><g
       id="g5663"
       transform="matrix(1.1874236,0,0,1.1874236,-71.379502,-10.108909)"><path
         style="fill:#ecf4f7;stroke-width:1.03514"
         d="m 368.08329,175.99948 v 0 L 98.671219,445.41152 c -10.599845,10.59985 -27.382588,10.59985 -37.099457,0 -10.599844,-10.59984 -10.599844,-27.38259 0,-37.09945 L 330.98486,138.89899 v 0 z"
         id="path1088" /><path
         style="fill:#a9dab2;fill-opacity:1;stroke-width:1.03514"
         d="m 436.95169,33.246568 c 6.1829,5.299923 12.36683,10.599845 18.54973,16.782743 20.31672,20.316716 33.56652,42.39938 40.6324,61.832089 12.36683,30.03255 12.36683,52.99922 12.36683,52.99922 l -142.21494,60.94912 -86.56575,-86.56575 h -0.88297 L 339.7861,-2.9699153 c 0,0 27.38259,0 61.83209,15.8997673 11.48385,5.299923 22.96667,11.482821 35.3335,20.316716"
         id="path1085" /><path
         id="polygon2"
         style="fill:#aab1ba;stroke-width:1.03514"
         d="M 310.63653,231.99367 273.53707,194.8942 261.17127,182.52737 279.721,139.24502 v 0 l 86.56471,86.56472 -43.28235,18.54972 z" /></g></g></g>
<g
   id="g26">
</g>
<g
   id="g28">
</g>
<g
   id="g30">
</g>
<g
   id="g32">
</g>
<g
   id="g34">
</g>
<g
   id="g36">
</g>
<g
   id="g38">
</g>
<g
   id="g40">
</g>
<g
   id="g42">
</g>
<g
   id="g44">
</g>
<g
   id="g46">
</g>
<g
   id="g48">
</g>
<g
   id="g50">
</g>
<g
   id="g52">
</g>
<g
   id="g54">
</g>
</svg>
