<?xml version="1.0" encoding="UTF-8" standalone="no"?>
<!-- Generator: Adobe Illustrator 19.0.0, SVG Export Plug-In . SVG Version: 6.00 Build 0)  -->

<svg
   version="1.1"
   id="Layer_1"
   x="0px"
   y="0px"
   viewBox="0 0 507.733 507.733"
   style="enable-background:new 0 0 507.733 507.733;"
   xml:space="preserve"
   sodipodi:docname="broomstick.svg"
   inkscape:version="1.1.2 (0a00cf5339, 2022-02-04, custom)"
   xmlns:inkscape="http://www.inkscape.org/namespaces/inkscape"
   xmlns:sodipodi="http://sodipodi.sourceforge.net/DTD/sodipodi-0.dtd"
   xmlns="http://www.w3.org/2000/svg"
   xmlns:svg="http://www.w3.org/2000/svg"><defs
   id="defs59">
	
	
	
	
	
	
</defs><sodipodi:namedview
   id="namedview57"
   pagecolor="#ffffff"
   bordercolor="#666666"
   borderopacity="1.0"
   inkscape:pageshadow="2"
   inkscape:pageopacity="0.0"
   inkscape:pagecheckerboard="0"
   showgrid="false"
   inkscape:zoom="0.87738488"
   inkscape:cx="317.42056"
   inkscape:cy="356.17208"
   inkscape:window-width="1920"
   inkscape:window-height="1019"
   inkscape:window-x="0"
   inkscape:window-y="0"
   inkscape:window-maximized="1"
   inkscape:current-layer="g1128" />

<g
   id="g1128"
   transform="matrix(-0.7311119,0,0,-0.75007916,444.17381,446.34947)"><path
     id="polygon2"
     style="fill:#aab1ba;stroke-width:1.03514"
     d="M 310.63653,231.99367 273.53707,194.8942 261.17127,182.52737 279.721,139.24502 v 0 l 86.56471,86.56472 -43.28235,18.54972 z" /><path
     style="fill:#ecf4f7;stroke-width:1.03514"
     d="m 310.63653,231.99367 v 0 L 41.22448,501.40571 c -10.599845,10.59985 -27.382588,10.59985 -37.0994579,0 -10.5998454,-10.59984 -10.5998454,-27.38259 0,-37.09945 L 273.5381,194.89318 v 0 z"
     id="path1088" /><path
     style="fill:#9ae9a8;fill-opacity:1;stroke-width:1.03514"
     d="m 436.95169,33.246568 c 6.1829,5.299923 12.36683,10.599845 18.54973,16.782743 20.31672,20.316716 33.56652,42.39938 40.6324,61.832089 12.36683,30.03255 12.36683,52.99922 12.36683,52.99922 l -142.21494,60.94912 -86.56575,-86.56575 h -0.88297 L 339.7861,-2.9699153 c 0,0 27.38259,0 61.83209,15.8997673 11.48385,5.299923 22.96667,11.482821 35.3335,20.316716"
     id="path1085" /><path
     id="circle8"
     style="fill:#ffd0a1;stroke-width:1.03514"
     d="m 296.50375,306.19258 a 8.8328594,8.8328594 0 0 1 -8.83286,8.83285 8.8328594,8.8328594 0 0 1 -8.83287,-8.83285 8.8328594,8.8328594 0 0 1 8.83287,-8.83286 8.8328594,8.8328594 0 0 1 8.83286,8.83286 z" /><g
     id="g14"
     transform="matrix(1.0351412,0,0,1.0351412,-7.206668,-8.5596775)">
		<path
   id="circle10"
   style="fill:#7ee1e6"
   d="m 438.46601,261.39999 a 8.533,8.533 0 0 1 -8.533,8.533 8.533,8.533 0 0 1 -8.533,-8.533 8.533,8.533 0 0 1 8.533,-8.533 8.533,8.533 0 0 1 8.533,8.533 z" />
		<path
   id="circle12"
   style="fill:#7ee1e6"
   d="M 233.666,31 A 8.533,8.533 0 0 1 225.133,39.533 8.533,8.533 0 0 1 216.6,31 8.533,8.533 0 0 1 225.133,22.467 8.533,8.533 0 0 1 233.666,31 Z" />
	</g><g
     id="g20"
     transform="matrix(1.0351412,0,0,1.0351412,-7.206668,-8.5596775)">
		<path
   id="circle16"
   style="fill:#c49ae9"
   d="m 506.73301,39.533001 a 8.533,8.533 0 0 1 -8.533,8.533 8.533,8.533 0 0 1 -8.533,-8.533 8.533,8.533 0 0 1 8.533,-8.533 8.533,8.533 0 0 1 8.533,8.533 z" />
		<path
   id="circle18"
   style="fill:#c49ae9"
   d="m 114.2,116.333 a 8.533,8.533 0 0 1 -8.533,8.533 8.533,8.533 0 0 1 -8.533,-8.533 8.533,8.533 0 0 1 8.533,-8.533 8.533,8.533 0 0 1 8.533,8.533 z" />
	</g><path
     style="fill:#51565f;stroke-width:1.03514"
     d="m 22.674752,513.77254 c -7.949884,0 -15.8997686,-2.64996 -22.08266666,-8.83286 -6.18393314,-6.18393 -8.83389454,-13.2498 -8.83389454,-22.08369 0,-8.83287 3.5329367,-15.89978 8.83285939,-22.08267 L 243.50452,217.85985 c 1.76698,-1.76699 4.41695,-1.76699 6.1829,0 1.76698,1.76699 1.76698,4.41694 0,6.1829 L 6.7749834,466.95621 c -4.4169472,4.41695 -6.18289806,9.71688 -6.18289806,15.89978 0,6.18289 2.64996136,11.48281 6.18289806,15.89976 8.8328596,8.83286 22.9666766,8.83286 30.9165606,0 L 280.60398,255.84332 c 1.76698,-1.76698 4.41694,-1.76698 6.18289,0 1.76699,1.76699 1.76699,4.41695 0,6.18289 L 43.874442,504.93968 c -5.299923,6.1829 -13.249807,8.83286 -21.19969,8.83286 z M 455.50142,354.77486 c -2.64996,0 -4.41694,-1.76698 -4.41694,-4.41694 v -13.24981 h -13.24981 c -2.64996,0 -4.41695,-1.76699 -4.41695,-4.41694 0,-2.64997 1.76699,-4.41696 4.41695,-4.41696 h 13.24981 v -13.2498 c 0,-2.64996 1.76698,-4.41695 4.41694,-4.41695 2.64997,0 4.41695,1.76699 4.41695,4.41695 v 13.2498 h 13.24981 c 2.64996,0 4.41695,1.76699 4.41695,4.41696 0,2.64995 -1.76699,4.41694 -4.41695,4.41694 h -13.24981 v 13.24981 c 0,2.64996 -1.76698,4.41694 -4.41695,4.41694 z M 323.00336,248.77641 c -0.88297,0 -2.64996,-0.88298 -3.53294,-0.88298 l -61.83209,-61.83208 c -0.88297,-0.88297 -1.76698,-3.53294 -0.88297,-5.29992 L 336.25419,-4.7358661 c 0.88298,-1.7669859 2.64997,-2.6499613 4.41696,-2.6499613 2.64995,0 64.48204,0.8829754 118.36528,53.8822024 53.88323,52.999225 53.88221,115.715315 53.88221,118.365285 0,1.76699 -0.88298,3.53294 -2.64997,4.41694 L 368.0527,230.22668 v 0 l -43.28236,18.54973 c -0.88401,0 -0.88401,0 -1.76698,0 z m -56.53217,-67.132 57.41617,57.41617 34.4495,-15.0168 -56.53216,-56.53216 c -0.88297,-0.88297 -0.88297,-1.76698 -0.88297,-3.53294 0,-1.76595 0,-2.64995 0.88297,-3.53293 1.76698,-1.76699 4.41695,-1.76699 6.1829,0 l 59.18213,59.18213 136.91501,-58.29915 c 0,-6.18291 -2.64997,-22.96668 -9.71688,-43.28237 l -36.21647,23.84965 c -1.76699,0.88298 -4.41695,0.88298 -6.1829,-0.88296 -0.88298,-0.88298 -0.88298,-1.76699 -0.88298,-2.64997 0,-1.76699 0.88298,-2.64996 1.76699,-3.53294 l 37.98243,-24.73263 c -7.94988,-17.666751 -19.4327,-37.982428 -38.86644,-57.416167 -5.29992,-5.299922 -10.59984,-9.71687 -15.0168,-14.132782 l -58.29915,58.299151 c -1.76698,1.766987 -4.41694,1.766987 -6.18289,0 -0.88298,-0.882979 -0.88298,-1.766987 -0.88298,-3.532935 0,-1.76699 0,-2.649965 0.88298,-3.53294 L 429.88582,32.365663 C 421.05297,26.182765 412.21907,20.882842 404.26918,16.465895 l -24.73262,34.449498 c -1.76699,1.766986 -4.41695,2.649961 -6.1829,0.882975 -0.88298,-0.882975 -1.76699,-2.649961 -1.76699,-3.532937 0,-0.882975 0,-1.766986 0.88298,-2.649961 L 395.43632,12.932958 C 370.70369,2.3331132 350.38698,0.56612687 343.32007,-0.31684855 Z m -128.96512,58.29915 c -2.64997,0 -4.41695,-1.76699 -4.41695,-4.41696 v -4.41694 h -4.41695 c -2.64996,0 -4.41695,-1.76699 -4.41695,-4.41695 0,-2.64996 1.76699,-4.41695 4.41695,-4.41695 h 4.41695 v -4.41695 c 0,-2.64995 1.76698,-4.41694 4.41695,-4.41694 2.64995,0 4.41694,1.76699 4.41694,4.41694 v 4.41798 h 4.41694 c 2.64997,0 4.41696,1.76699 4.41696,4.41696 0,2.64995 -1.76699,4.41694 -4.41696,4.41694 h -4.41694 v 4.41695 c 0,2.64893 -1.76699,4.41592 -4.41694,4.41592 z M 190.50529,89.778731 c -2.64996,0 -4.41695,-1.766986 -4.41695,-4.416947 V 72.111978 h -13.24981 c -2.64995,0 -4.41694,-1.766986 -4.41694,-4.416948 0,-2.649961 1.76699,-4.416947 4.41694,-4.416947 h 13.24981 V 50.029311 c 0,-2.649961 1.76699,-4.416947 4.41695,-4.416947 2.64996,0 4.41695,1.766986 4.41695,4.416947 v 13.249807 h 13.2498 c 2.64997,0 4.41695,1.766986 4.41695,4.416948 0,2.649961 -1.76698,4.416947 -4.41695,4.416947 h -13.2498 v 13.249806 c 0,2.648926 -1.76699,4.415912 -4.41695,4.415912 z"
     id="path1067" /></g>
<g
   id="g26">
</g>
<g
   id="g28">
</g>
<g
   id="g30">
</g>
<g
   id="g32">
</g>
<g
   id="g34">
</g>
<g
   id="g36">
</g>
<g
   id="g38">
</g>
<g
   id="g40">
</g>
<g
   id="g42">
</g>
<g
   id="g44">
</g>
<g
   id="g46">
</g>
<g
   id="g48">
</g>
<g
   id="g50">
</g>
<g
   id="g52">
</g>
<g
   id="g54">
</g>
</svg>
