<?xml version="1.0" encoding="UTF-8" standalone="no"?>
<!-- Generator: Adobe Illustrator 19.0.0, SVG Export Plug-In . SVG Version: 6.00 Build 0)  -->

<svg
   version="1.1"
   id="Layer_1"
   x="0px"
   y="0px"
   viewBox="0 0 454 454"
   style="enable-background:new 0 0 454 454;"
   xml:space="preserve"
   sodipodi:docname="computer.svg"
   inkscape:version="1.2 (dc2aedaf03, 2022-05-15)"
   xmlns:inkscape="http://www.inkscape.org/namespaces/inkscape"
   xmlns:sodipodi="http://sodipodi.sourceforge.net/DTD/sodipodi-0.dtd"
   xmlns="http://www.w3.org/2000/svg"
   xmlns:svg="http://www.w3.org/2000/svg"
   xmlns:rdf="http://www.w3.org/1999/02/22-rdf-syntax-ns#"
   xmlns:cc="http://creativecommons.org/ns#"><defs
   id="defs85">
	
	
	
	
	
	
	
	
	
	
	
	
	
	
	
	
	
	
	
	
	
</defs><sodipodi:namedview
   id="namedview83"
   pagecolor="#ffffff"
   bordercolor="#666666"
   borderopacity="1.0"
   inkscape:showpageshadow="2"
   inkscape:pageopacity="0.0"
   inkscape:pagecheckerboard="0"
   inkscape:deskcolor="#d1d1d1"
   showgrid="false"
   inkscape:zoom="0.6533729"
   inkscape:cx="156.87826"
   inkscape:cy="431.60652"
   inkscape:window-width="1920"
   inkscape:window-height="1019"
   inkscape:window-x="0"
   inkscape:window-y="0"
   inkscape:window-maximized="1"
   inkscape:current-layer="Layer_1" />
<polygon
   style="fill:#666666"
   points="195.15,364.088 198.49,349.088 255.5,349.088 258.84,364.088 269.53,412.088 184.47,412.088 "
   id="polygon2" /><path
   style="fill:#b3b3b3"
   d="m 454,51.608 v 280.28 c 0,9.5 -7.7,17.2 -17.2,17.2 H 255.5 198.49 17.2 c -9.5,0 -17.2,-7.7 -17.2,-17.2 V 51.608 c 0,-9.5 7.7,-17.2 17.2,-17.2 h 419.6 c 9.5,0 17.2,7.7 17.2,17.2 z m -23,274.48 V 91.058 57.408 H 23 v 33.65 235.03 z"
   id="path4" /><path
   style="fill:#4d4d4d"
   d="m 255.5,349.088 h -57.01 l -3.34,15 h 63.69 z"
   id="path6" /><rect
   x="23"
   y="57.408001"
   style="fill:#88c5fc"
   width="408"
   height="33.650002"
   id="rect8" /><rect
   x="23"
   y="91.057999"
   style="fill:#e6e6e6"
   width="408"
   height="235.03"
   id="rect10" /><rect
   x="145.603"
   y="404.59201"
   style="fill:#b3b3b3"
   width="162.78799"
   height="15"
   id="rect20" /><path
   style="opacity:0.23;fill:#f2f2f2;enable-background:new"
   d="m 454,51.608 v 280.28 c 0,9.5 -7.7,17.2 -17.2,17.2 H 194.887 L 358.637,34.408 H 436.8 c 9.5,0 17.2,7.7 17.2,17.2 z"
   id="path38" /><path
   style="opacity:0.23;fill:#f2f2f2;enable-background:new"
   d="m 119.68,34.408 -22.56,43.35 -11.83,22.74 -25.96,49.88 -12.39,23.82 -23.94,46 -23,44.2 V 51.608 c 0,-9.5 7.7,-17.2 17.2,-17.2 z"
   id="path48" />
<g
   id="g52">
</g>
<g
   id="g54">
</g>
<g
   id="g56">
</g>
<g
   id="g58">
</g>
<g
   id="g60">
</g>
<g
   id="g62">
</g>
<g
   id="g64">
</g>
<g
   id="g66">
</g>
<g
   id="g68">
</g>
<g
   id="g70">
</g>
<g
   id="g72">
</g>
<g
   id="g74">
</g>
<g
   id="g76">
</g>
<g
   id="g78">
</g>
<g
   id="g80">
</g>
<metadata
   id="metadata1234"><rdf:RDF><cc:License
       rdf:about="http://artlibre.org/licence/lal"><cc:permits
         rdf:resource="http://creativecommons.org/ns#Reproduction" /><cc:permits
         rdf:resource="http://creativecommons.org/ns#Distribution" /><cc:permits
         rdf:resource="http://creativecommons.org/ns#DerivativeWorks" /><cc:requires
         rdf:resource="http://creativecommons.org/ns#ShareAlike" /><cc:requires
         rdf:resource="http://creativecommons.org/ns#Notice" /><cc:requires
         rdf:resource="http://creativecommons.org/ns#Attribution" /></cc:License><cc:Work
       rdf:about=""><cc:license
         rdf:resource="http://artlibre.org/licence/lal" /></cc:Work></rdf:RDF></metadata></svg>
