<?xml version="1.0" encoding="UTF-8" standalone="no"?>
<!-- Generator: Adobe Illustrator 16.0.0, SVG Export Plug-In . SVG Version: 6.00 Build 0)  -->

<svg
   version="1.1"
   id="Layer_1"
   x="0px"
   y="0px"
   width="512"
   height="512"
   viewBox="0 0 512 512"
   enable-background="new 0 0 512 512"
   xml:space="preserve"
   sodipodi:docname="drive.svg"
   inkscape:version="1.2 (dc2aedaf03, 2022-05-15)"
   xmlns:inkscape="http://www.inkscape.org/namespaces/inkscape"
   xmlns:sodipodi="http://sodipodi.sourceforge.net/DTD/sodipodi-0.dtd"
   xmlns="http://www.w3.org/2000/svg"
   xmlns:svg="http://www.w3.org/2000/svg"
   xmlns:rdf="http://www.w3.org/1999/02/22-rdf-syntax-ns#"
   xmlns:cc="http://creativecommons.org/ns#"><defs
   id="defs50">
	
	
	
	
	
	
	
	
	
	

		
		
		
		
	</defs><sodipodi:namedview
   id="namedview48"
   pagecolor="#ffffff"
   bordercolor="#666666"
   borderopacity="1.0"
   inkscape:showpageshadow="2"
   inkscape:pageopacity="0.0"
   inkscape:pagecheckerboard="0"
   inkscape:deskcolor="#d1d1d1"
   showgrid="false"
   inkscape:zoom="1.158716"
   inkscape:cx="292.99673"
   inkscape:cy="252.00308"
   inkscape:window-width="1920"
   inkscape:window-height="1019"
   inkscape:window-x="0"
   inkscape:window-y="0"
   inkscape:window-maximized="1"
   inkscape:current-layer="Layer_1" />
<g
   id="g931"><g
     id="g4">
		<rect
   x="85.332001"
   y="202.664"
   fill="#434a54"
   width="341.32001"
   height="309.336"
   id="rect2" />
	</g><path
     fill="#656d78"
     d="m 383.996,458.656 c -5.891,0 -10.656,4.781 -10.656,10.688 0,5.875 4.766,10.656 10.656,10.656 h 42.656 v -21.344 z"
     id="path6" /><path
     fill="#656d78"
     d="m 127.996,480 c 5.891,0 10.664,-4.781 10.664,-10.656 0,-5.906 -4.773,-10.688 -10.664,-10.688 H 85.332 V 480 Z"
     id="path8" /><g
     id="g20">
		<g
   id="g12">
			<path
   fill="#ccd1d9"
   d="M 294.59,176.82 C 215.051,155.515 133.301,202.711 111.996,282.25 90.684,361.766 137.879,443.516 217.41,464.812 296.933,486.124 378.683,438.937 399.996,359.406 421.309,279.875 374.121,198.133 294.59,176.82 Z"
   id="path10" />
		</g>
		<path
   fill="#e6e9ed"
   d="M 294.152,464.969 255.996,322.594 217.855,464.938 c 25.93,6.874 52.086,6.468 76.297,0.031 z"
   id="path14" />
		<g
   id="g18">
			<path
   fill="#ed5564"
   d="m 267.035,279.391 c -22.75,-6.094 -46.141,7.406 -52.242,30.172 -6.094,22.75 7.406,46.125 30.164,52.234 22.758,6.094 46.148,-7.406 52.242,-30.172 6.094,-22.75 -7.406,-46.125 -30.164,-52.234 z"
   id="path16" />
		</g>
	</g><rect
     x="85.332001"
     y="10.664"
     fill="#ffce54"
     width="341.32001"
     height="341.336"
     id="rect22" /><path
     fill="#f6bb42"
     d="M 74.66,0 V 362.656 H 437.34 V 0 Z m 341.336,341.344 h -320 V 21.336 h 320 z"
     id="path24" /><g
     id="g28">
		<path
   fill="#f6bb42"
   d="m 373.34,181.336 c 0,64.797 -52.531,117.32 -117.344,117.32 -64.797,0 -117.328,-52.523 -117.328,-117.32 C 138.668,116.531 191.199,64 255.996,64 320.809,64 373.34,116.531 373.34,181.336 Z"
   id="path26" />
	</g><g
     id="g32">
		<path
   fill="#ffce54"
   d="m 309.34,181.336 c 0,29.453 -23.875,53.328 -53.344,53.328 -29.453,0 -53.328,-23.875 -53.328,-53.328 0,-29.461 23.875,-53.336 53.328,-53.336 29.469,0 53.344,23.875 53.344,53.336 z"
   id="path30" />
	</g><path
     fill="#656d78"
     d="M 426.652,490.656 H 85.332 c -5.891,0 -10.672,4.781 -10.672,10.688 0,5.875 4.781,10.656 10.672,10.656 h 341.32 c 5.906,0 10.688,-4.781 10.688,-10.656 0,-5.906 -4.781,-10.688 -10.688,-10.688 z"
     id="path44" /></g>
<metadata
   id="metadata1317"><rdf:RDF><cc:License
       rdf:about="http://artlibre.org/licence/lal"><cc:permits
         rdf:resource="http://creativecommons.org/ns#Reproduction" /><cc:permits
         rdf:resource="http://creativecommons.org/ns#Distribution" /><cc:permits
         rdf:resource="http://creativecommons.org/ns#DerivativeWorks" /><cc:requires
         rdf:resource="http://creativecommons.org/ns#ShareAlike" /><cc:requires
         rdf:resource="http://creativecommons.org/ns#Notice" /><cc:requires
         rdf:resource="http://creativecommons.org/ns#Attribution" /></cc:License><cc:Work
       rdf:about=""><cc:license
         rdf:resource="http://artlibre.org/licence/lal" /></cc:Work></rdf:RDF></metadata></svg>
