<?xml version="1.0" encoding="UTF-8" standalone="no"?>
<!-- Created with Inkscape (http://www.inkscape.org/) -->

<svg
   width="200mm"
   height="200mm"
   viewBox="0 0 200 200"
   version="1.1"
   id="svg5"
   inkscape:version="1.2 (dc2aedaf03, 2022-05-15)"
   sodipodi:docname="expand_black.svg"
   xmlns:inkscape="http://www.inkscape.org/namespaces/inkscape"
   xmlns:sodipodi="http://sodipodi.sourceforge.net/DTD/sodipodi-0.dtd"
   xmlns="http://www.w3.org/2000/svg"
   xmlns:svg="http://www.w3.org/2000/svg">
  <sodipodi:namedview
     id="namedview7"
     pagecolor="#ffffff"
     bordercolor="#666666"
     borderopacity="1.0"
     inkscape:pageshadow="2"
     inkscape:pageopacity="0.0"
     inkscape:pagecheckerboard="0"
     inkscape:document-units="mm"
     showgrid="false"
     inkscape:zoom="0.19842738"
     inkscape:cx="-103.31236"
     inkscape:cy="665.23078"
     inkscape:window-width="1920"
     inkscape:window-height="1019"
     inkscape:window-x="0"
     inkscape:window-y="0"
     inkscape:window-maximized="1"
     inkscape:current-layer="layer1"
     inkscape:showpageshadow="2"
     inkscape:deskcolor="#d1d1d1" />
  <defs
     id="defs2" />
  <g
     inkscape:label="Layer 1"
     inkscape:groupmode="layer"
     id="layer1">
    <path
       id="rect896"
       style="fill:none;fill-opacity:0.992361;fill-rule:evenodd;stroke:#272727;stroke-width:12;stroke-miterlimit:4;stroke-dasharray:none;stroke-opacity:1"
       d="m 178.79693,143.57603 c 0.83755,0 1.51154,-0.67451 1.51154,-1.51205 V 21.145771 c 0,-0.837541 -0.67399,-1.511535 -1.51154,-1.511535 H 56.447816 c -0.837541,0 -1.511535,0.673994 -1.511535,1.511535 v 33.942631 h 88.935649 c 0.83755,0 1.51154,0.67451 1.51154,1.512051 v 86.975577 z" />
    <path
       style="fill:none;fill-opacity:0.992361;fill-rule:evenodd;stroke:#272727;stroke-width:12;stroke-miterlimit:4;stroke-dasharray:none;stroke-opacity:1"
       d="M 143.80165,179.40301 H 21.452712 c -0.83754,0 -1.51181,-0.67426 -1.51181,-1.51181 V 56.973092 c 0,-0.83754 0.67427,-1.51181 1.51181,-1.51181 H 143.80165 c 0.83754,0 1.51181,0.67427 1.51181,1.51181 V 177.8912 c 0,0.83755 -0.67427,1.51181 -1.51181,1.51181 z"
       id="path893-6" />
  </g>
</svg>
