<?xml version="1.0" encoding="UTF-8" standalone="no"?>
<!-- Created with Inkscape (http://www.inkscape.org/) -->

<svg
   width="200mm"
   height="200mm"
   viewBox="0 0 200 200"
   version="1.1"
   id="svg5"
   inkscape:version="1.1.2 (0a00cf5339, 2022-02-04, custom)"
   sodipodi:docname="expand.svg"
   xmlns:inkscape="http://www.inkscape.org/namespaces/inkscape"
   xmlns:sodipodi="http://sodipodi.sourceforge.net/DTD/sodipodi-0.dtd"
   xmlns="http://www.w3.org/2000/svg"
   xmlns:svg="http://www.w3.org/2000/svg">
  <sodipodi:namedview
     id="namedview7"
     pagecolor="#ffffff"
     bordercolor="#666666"
     borderopacity="1.0"
     inkscape:pageshadow="2"
     inkscape:pageopacity="0.0"
     inkscape:pagecheckerboard="0"
     inkscape:document-units="mm"
     showgrid="false"
     inkscape:zoom="0.56123738"
     inkscape:cx="298.44769"
     inkscape:cy="535.42406"
     inkscape:window-width="1920"
     inkscape:window-height="1019"
     inkscape:window-x="0"
     inkscape:window-y="0"
     inkscape:window-maximized="1"
     inkscape:current-layer="layer1" />
  <defs
     id="defs2" />
  <g
     inkscape:label="Layer 1"
     inkscape:groupmode="layer"
     id="layer1">
    <path
       id="rect896"
       style="fill:none;fill-opacity:0.992361;fill-rule:evenodd;stroke:#ffffff;stroke-width:14.3378;stroke-miterlimit:4;stroke-dasharray:none;stroke-opacity:1"
       d="m 174.96601,141.98746 c 0.80058,0 1.44481,-0.64472 1.44481,-1.44529 V 24.962249 c 0,-0.800565 -0.64423,-1.444804 -1.44481,-1.444804 H 58.018359 c -0.800566,0 -1.444804,0.644239 -1.444804,1.444804 v 32.444135 h 85.009325 c 0.80058,0 1.44481,0.644731 1.44481,1.445297 v 83.135779 z" />
    <path
       style="fill:none;fill-opacity:0.992361;fill-rule:evenodd;stroke:#ffffff;stroke-width:14.3378;stroke-miterlimit:4;stroke-dasharray:none;stroke-opacity:1"
       d="M 141.5157,176.23276 H 24.568216 c -0.800564,0 -1.445067,-0.6445 -1.445067,-1.44507 V 59.207868 c 0,-0.800564 0.644503,-1.445067 1.445067,-1.445067 H 141.5157 c 0.80056,0 1.44507,0.644503 1.44507,1.445067 V 174.78769 c 0,0.80057 -0.64451,1.44507 -1.44507,1.44507 z"
       id="path893-6" />
  </g>
</svg>
