<?xml version="1.0" encoding="UTF-8" standalone="no"?>
<!-- Created with Inkscape (http://www.inkscape.org/) -->

<svg
   width="200mm"
   height="200mm"
   viewBox="0 0 200 200"
   version="1.1"
   id="svg5"
   inkscape:version="1.2.2 (b0a8486541, 2022-12-01)"
   sodipodi:docname="expand_black.svg"
   xmlns:inkscape="http://www.inkscape.org/namespaces/inkscape"
   xmlns:sodipodi="http://sodipodi.sourceforge.net/DTD/sodipodi-0.dtd"
   xmlns="http://www.w3.org/2000/svg"
   xmlns:svg="http://www.w3.org/2000/svg">
  <sodipodi:namedview
     id="namedview7"
     pagecolor="#ffffff"
     bordercolor="#666666"
     borderopacity="1.0"
     inkscape:pageshadow="2"
     inkscape:pageopacity="0.0"
     inkscape:pagecheckerboard="0"
     inkscape:document-units="mm"
     showgrid="false"
     inkscape:zoom="0.19842738"
     inkscape:cx="-458.60607"
     inkscape:cy="670.2704"
     inkscape:window-width="1920"
     inkscape:window-height="1017"
     inkscape:window-x="0"
     inkscape:window-y="0"
     inkscape:window-maximized="1"
     inkscape:current-layer="layer1"
     inkscape:showpageshadow="2"
     inkscape:deskcolor="#d1d1d1" />
  <defs
     id="defs2" />
  <g
     inkscape:label="Layer 1"
     inkscape:groupmode="layer"
     id="layer1">
    <path
       id="rect896"
       style="fill:none;fill-opacity:0.992361;fill-rule:evenodd;stroke:#272727;stroke-width:7.6714;stroke-miterlimit:4;stroke-dasharray:none;stroke-opacity:1"
       d="m 150.49982,128.51784 c 0.53442,0 0.96449,-0.43203 0.96449,-0.96844 V 50.103787 c 0,-0.536416 -0.43007,-0.968087 -0.96449,-0.968087 h -78.0695 c -0.534424,0 -0.964492,0.431671 -0.964492,0.968087 v 21.739545 h 56.748762 c 0.53443,0 0.9645,0.432024 0.9645,0.968439 v 55.706069 z" />
    <path
       style="fill:none;fill-opacity:0.992361;fill-rule:evenodd;stroke:#272727;stroke-width:7.6714;stroke-miterlimit:4;stroke-dasharray:none;stroke-opacity:1"
       d="M 128.16975,151.46428 H 50.100367 c -0.534423,0 -0.964667,-0.43191 -0.964667,-0.96832 V 73.050436 c 0,-0.536415 0.430244,-0.968321 0.964667,-0.968321 h 78.069383 c 0.53442,0 0.96466,0.431906 0.96466,0.968321 v 77.445554 c 0,0.53642 -0.43024,0.96833 -0.96466,0.96833 z"
       id="path893-6" />
  </g>
</svg>
