<?xml version="1.0" encoding="UTF-8" standalone="no"?>
<!-- Generator: Adobe Illustrator 18.0.0, SVG Export Plug-In . SVG Version: 6.00 Build 0)  -->

<svg
   version="1.1"
   id="Capa_1"
   x="0px"
   y="0px"
   viewBox="0 0 58.707 58.707"
   style="enable-background:new 0 0 58.707 58.707;"
   xml:space="preserve"
   sodipodi:docname="file.svg"
   inkscape:version="1.2 (dc2aedaf03, 2022-05-15)"
   xmlns:inkscape="http://www.inkscape.org/namespaces/inkscape"
   xmlns:sodipodi="http://sodipodi.sourceforge.net/DTD/sodipodi-0.dtd"
   xmlns="http://www.w3.org/2000/svg"
   xmlns:svg="http://www.w3.org/2000/svg"
   xmlns:rdf="http://www.w3.org/1999/02/22-rdf-syntax-ns#"
   xmlns:cc="http://creativecommons.org/ns#"><defs
   id="defs71">
	
	
</defs><sodipodi:namedview
   id="namedview69"
   pagecolor="#ffffff"
   bordercolor="#666666"
   borderopacity="1.0"
   inkscape:showpageshadow="2"
   inkscape:pageopacity="0.0"
   inkscape:pagecheckerboard="0"
   inkscape:deskcolor="#d1d1d1"
   showgrid="false"
   inkscape:zoom="7.1456556"
   inkscape:cx="36.875553"
   inkscape:cy="36.105855"
   inkscape:window-width="1920"
   inkscape:window-height="1019"
   inkscape:window-x="0"
   inkscape:window-y="0"
   inkscape:window-maximized="1"
   inkscape:current-layer="Capa_1" />
<g
   id="g18"
   transform="matrix(0.96722133,0,0,0.96722133,7.0468183,1.488711)">
		<polygon
   style="fill:#efebde"
   points="46.072,14 32.072,0 1.072,0 1.072,58 46.072,58 "
   id="polygon2" />
		<g
   id="g14">
			<path
   style="fill:#d5d0bb"
   d="m 11.072,23 h 25 c 0.552,0 1,-0.447 1,-1 0,-0.553 -0.448,-1 -1,-1 h -25 c -0.552,0 -1,0.447 -1,1 0,0.553 0.448,1 1,1 z"
   id="path4" />
			<path
   style="fill:#d5d0bb"
   d="m 11.072,15 h 10 c 0.552,0 1,-0.447 1,-1 0,-0.553 -0.448,-1 -1,-1 h -10 c -0.552,0 -1,0.447 -1,1 0,0.553 0.448,1 1,1 z"
   id="path6" />
			<path
   style="fill:#d5d0bb"
   d="m 36.072,29 h -25 c -0.552,0 -1,0.447 -1,1 0,0.553 0.448,1 1,1 h 25 c 0.552,0 1,-0.447 1,-1 0,-0.553 -0.448,-1 -1,-1 z"
   id="path8" />
			<path
   style="fill:#d5d0bb"
   d="m 36.072,37 h -25 c -0.552,0 -1,0.447 -1,1 0,0.553 0.448,1 1,1 h 25 c 0.552,0 1,-0.447 1,-1 0,-0.553 -0.448,-1 -1,-1 z"
   id="path10" />
			<path
   style="fill:#d5d0bb"
   d="m 36.072,45 h -25 c -0.552,0 -1,0.447 -1,1 0,0.553 0.448,1 1,1 h 25 c 0.552,0 1,-0.447 1,-1 0,-0.553 -0.448,-1 -1,-1 z"
   id="path12" />
		</g>
		<polygon
   style="fill:#d5d0bb"
   points="32.072,14 46.072,14 32.072,0 "
   id="polygon16" />
	</g>
<g
   id="g38">
</g>
<g
   id="g40">
</g>
<g
   id="g42">
</g>
<g
   id="g44">
</g>
<g
   id="g46">
</g>
<g
   id="g48">
</g>
<g
   id="g50">
</g>
<g
   id="g52">
</g>
<g
   id="g54">
</g>
<g
   id="g56">
</g>
<g
   id="g58">
</g>
<g
   id="g60">
</g>
<g
   id="g62">
</g>
<g
   id="g64">
</g>
<g
   id="g66">
</g>
<metadata
   id="metadata1220"><rdf:RDF><cc:License
       rdf:about="http://artlibre.org/licence/lal"><cc:permits
         rdf:resource="http://creativecommons.org/ns#Reproduction" /><cc:permits
         rdf:resource="http://creativecommons.org/ns#Distribution" /><cc:permits
         rdf:resource="http://creativecommons.org/ns#DerivativeWorks" /><cc:requires
         rdf:resource="http://creativecommons.org/ns#ShareAlike" /><cc:requires
         rdf:resource="http://creativecommons.org/ns#Notice" /><cc:requires
         rdf:resource="http://creativecommons.org/ns#Attribution" /></cc:License><cc:Work
       rdf:about=""><cc:license
         rdf:resource="http://artlibre.org/licence/lal" /></cc:Work></rdf:RDF></metadata></svg>
