<?xml version="1.0" encoding="UTF-8" standalone="no"?>
<svg
   class="svg-icon"
   style="overflow:hidden;fill:currentColor"
   viewBox="0 0 210 210"
   version="1.1"
   id="svg6"
   sodipodi:docname="history.svg"
   width="210"
   height="210"
   inkscape:version="1.1.2 (0a00cf5339, 2022-02-04, custom)"
   xmlns:inkscape="http://www.inkscape.org/namespaces/inkscape"
   xmlns:sodipodi="http://sodipodi.sourceforge.net/DTD/sodipodi-0.dtd"
   xmlns="http://www.w3.org/2000/svg"
   xmlns:svg="http://www.w3.org/2000/svg"
   xmlns:rdf="http://www.w3.org/1999/02/22-rdf-syntax-ns#"
   xmlns:cc="http://creativecommons.org/ns#">
  <defs
     id="defs10" />
  <sodipodi:namedview
     id="namedview8"
     pagecolor="#ffffff"
     bordercolor="#666666"
     borderopacity="1.0"
     inkscape:pageshadow="2"
     inkscape:pageopacity="0.0"
     inkscape:pagecheckerboard="0"
     showgrid="false"
     inkscape:zoom="2.4609375"
     inkscape:cx="90.209524"
     inkscape:cy="126.98413"
     inkscape:window-width="1920"
     inkscape:window-height="1019"
     inkscape:window-x="0"
     inkscape:window-y="0"
     inkscape:window-maximized="1"
     inkscape:current-layer="svg6" />
  <g
     id="g829">
    <path
       d="m 104.49161,9.6253601 c -53.224082,0 -96.3701199,43.1460379 -96.3701199,96.3701199 0,53.22406 43.1460379,96.37096 96.3701199,96.37096 53.22406,0 96.37096,-43.1469 96.37096,-96.37096 0,-53.224082 -43.1469,-96.3701199 -96.37096,-96.3701199 z M 180.60948,138.14193 C 162.92399,180.01321 114.64363,199.61988 72.772147,181.93438 30.900646,164.24889 11.29419,115.96853 28.97969,74.097035 46.665189,32.225542 94.945535,12.619085 136.81704,30.304585 c 36.14087,15.265051 56.48217,53.918455 48.59958,92.350725 a 82.602247,82.602247 0 0 1 -4.80714,15.48662 z"
       fill="#666666"
       id="path2"
       style="stroke-width:0.215113" />
    <path
       d="M 111.22743,103.12177 V 50.95305 c 0,-3.798247 -3.07913,-6.877157 -6.87716,-6.877157 -3.79803,0 -6.87716,3.079126 -6.87716,6.877157 v 57.86642 l 43.34115,43.34115 c 2.6857,2.68568 7.04021,2.68568 9.7259,0 2.68568,-2.68569 2.68568,-7.04021 0,-9.72591 z"
       fill="#666666"
       id="path4"
       style="stroke-width:0.215113" />
  </g>
  <metadata
     id="metadata823">
    <rdf:RDF>
      <cc:License
         rdf:about="http://artlibre.org/licence/lal">
        <cc:permits
           rdf:resource="http://creativecommons.org/ns#Reproduction" />
        <cc:permits
           rdf:resource="http://creativecommons.org/ns#Distribution" />
        <cc:permits
           rdf:resource="http://creativecommons.org/ns#DerivativeWorks" />
        <cc:requires
           rdf:resource="http://creativecommons.org/ns#ShareAlike" />
        <cc:requires
           rdf:resource="http://creativecommons.org/ns#Notice" />
        <cc:requires
           rdf:resource="http://creativecommons.org/ns#Attribution" />
      </cc:License>
      <cc:Work
         rdf:about="">
        <cc:license
           rdf:resource="http://artlibre.org/licence/lal" />
      </cc:Work>
    </rdf:RDF>
  </metadata>
</svg>
