<?xml version="1.0" encoding="UTF-8" standalone="no"?>
<!-- Generator: Adobe Illustrator 19.0.0, SVG Export Plug-In . SVG Version: 6.00 Build 0)  -->

<svg
   version="1.1"
   id="Layer_1"
   x="0px"
   y="0px"
   viewBox="0 0 210.00001 210.00001"
   xml:space="preserve"
   sodipodi:docname="info.svg"
   width="210"
   height="210"
   inkscape:version="1.1.2 (0a00cf5339, 2022-02-04, custom)"
   xmlns:inkscape="http://www.inkscape.org/namespaces/inkscape"
   xmlns:sodipodi="http://sodipodi.sourceforge.net/DTD/sodipodi-0.dtd"
   xmlns="http://www.w3.org/2000/svg"
   xmlns:svg="http://www.w3.org/2000/svg"
   xmlns:rdf="http://www.w3.org/1999/02/22-rdf-syntax-ns#"
   xmlns:cc="http://creativecommons.org/ns#"><defs
   id="defs43" /><sodipodi:namedview
   id="namedview41"
   pagecolor="#ffffff"
   bordercolor="#666666"
   borderopacity="1.0"
   inkscape:pageshadow="2"
   inkscape:pageopacity="0.0"
   inkscape:pagecheckerboard="0"
   showgrid="false"
   width="24px"
   inkscape:zoom="1.7957073"
   inkscape:cx="77.685266"
   inkscape:cy="118.33777"
   inkscape:window-width="1920"
   inkscape:window-height="1019"
   inkscape:window-x="0"
   inkscape:window-y="0"
   inkscape:window-maximized="1"
   inkscape:current-layer="Layer_1" />
<path
   style="fill:#25b7d3;stroke-width:0.422395"
   d="M 209.65695,104.87391 C 209.65695,46.996507 162.74197,0.08532471 104.87133,0.08532471 46.997731,0.08532471 0.0823257,46.996507 0.0823257,104.87391 c 0,57.86852 46.9154053,104.78351 104.7890043,104.78351 57.87064,0 104.78562,-46.91499 104.78562,-104.78351 z"
   id="path2" />
<g
   id="g8"
   transform="matrix(0.42239493,0,0,0.42239493,0.0823257,0.08405753)">
	<path
   style="fill:#ffffff"
   d="m 315.249,359.555 c -1.387,-2.032 -4.048,-2.755 -6.27,-1.702 -24.582,11.637 -52.482,23.94 -57.958,25.015 -0.138,-0.123 -0.357,-0.348 -0.644,-0.737 -0.742,-1.005 -1.103,-2.318 -1.103,-4.015 0,-13.905 10.495,-56.205 31.192,-125.719 17.451,-58.406 19.469,-70.499 19.469,-74.514 0,-6.198 -2.373,-11.435 -6.865,-15.146 -4.267,-3.519 -10.229,-5.302 -17.719,-5.302 -12.459,0 -26.899,4.73 -44.146,14.461 -16.713,9.433 -35.352,25.41 -55.396,47.487 -1.569,1.729 -1.733,4.314 -0.395,6.228 1.34,1.915 3.825,2.644 5.986,1.764 7.037,-2.872 42.402,-17.359 47.557,-20.597 4.221,-2.646 7.875,-3.989 10.861,-3.989 0.107,0 0.199,0.004 0.276,0.01 0.036,0.198 0.07,0.5 0.07,0.933 0,3.047 -0.627,6.654 -1.856,10.703 -30.136,97.641 -44.785,157.498 -44.785,182.994 0,8.998 2.501,16.242 7.432,21.528 5.025,5.393 11.803,8.127 20.146,8.127 8.891,0 19.712,-3.714 33.08,-11.354 12.936,-7.392 32.68,-23.653 60.363,-49.717 1.793,-1.687 2.092,-4.426 0.705,-6.458 z"
   id="path4" />
	<path
   style="fill:#ffffff"
   d="m 314.282,76.672 c -4.925,-5.041 -11.227,-7.597 -18.729,-7.597 -9.34,0 -17.475,3.691 -24.176,10.971 -6.594,7.16 -9.938,15.946 -9.938,26.113 0,8.033 2.463,14.69 7.32,19.785 4.922,5.172 11.139,7.794 18.476,7.794 8.958,0 17.049,-3.898 24.047,-11.586 6.876,-7.553 10.363,-16.433 10.363,-26.393 0.001,-7.654 -2.476,-14.075 -7.363,-19.087 z"
   id="path6" />
</g>
<g
   id="g10">
</g>
<g
   id="g12">
</g>
<g
   id="g14">
</g>
<g
   id="g16">
</g>
<g
   id="g18">
</g>
<g
   id="g20">
</g>
<g
   id="g22">
</g>
<g
   id="g24">
</g>
<g
   id="g26">
</g>
<g
   id="g28">
</g>
<g
   id="g30">
</g>
<g
   id="g32">
</g>
<g
   id="g34">
</g>
<g
   id="g36">
</g>
<g
   id="g38">
</g>
<metadata
   id="metadata839"><rdf:RDF><cc:License
       rdf:about="http://artlibre.org/licence/lal"><cc:permits
         rdf:resource="http://creativecommons.org/ns#Reproduction" /><cc:permits
         rdf:resource="http://creativecommons.org/ns#Distribution" /><cc:permits
         rdf:resource="http://creativecommons.org/ns#DerivativeWorks" /><cc:requires
         rdf:resource="http://creativecommons.org/ns#ShareAlike" /><cc:requires
         rdf:resource="http://creativecommons.org/ns#Notice" /><cc:requires
         rdf:resource="http://creativecommons.org/ns#Attribution" /></cc:License><cc:Work
       rdf:about=""><cc:license
         rdf:resource="http://artlibre.org/licence/lal" /></cc:Work></rdf:RDF></metadata></svg>
