<?xml version="1.0" encoding="UTF-8" standalone="no"?>
<!-- Generator: Adobe Illustrator 19.0.0, SVG Export Plug-In . SVG Version: 6.00 Build 0)  -->

<svg
   version="1.1"
   id="Layer_1"
   x="0px"
   y="0px"
   viewBox="0 0 512 512"
   style="enable-background:new 0 0 512 512;"
   xml:space="preserve"
   sodipodi:docname="network.svg"
   inkscape:version="1.2 (dc2aedaf03, 2022-05-15)"
   xmlns:inkscape="http://www.inkscape.org/namespaces/inkscape"
   xmlns:sodipodi="http://sodipodi.sourceforge.net/DTD/sodipodi-0.dtd"
   xmlns="http://www.w3.org/2000/svg"
   xmlns:svg="http://www.w3.org/2000/svg"
   xmlns:rdf="http://www.w3.org/1999/02/22-rdf-syntax-ns#"
   xmlns:cc="http://creativecommons.org/ns#"><defs
   id="defs97" /><sodipodi:namedview
   id="namedview95"
   pagecolor="#ffffff"
   bordercolor="#666666"
   borderopacity="1.0"
   inkscape:showpageshadow="2"
   inkscape:pageopacity="0.0"
   inkscape:pagecheckerboard="0"
   inkscape:deskcolor="#d1d1d1"
   showgrid="false"
   inkscape:zoom="0.81933594"
   inkscape:cx="217.85936"
   inkscape:cy="205.0441"
   inkscape:window-width="1920"
   inkscape:window-height="1019"
   inkscape:window-x="0"
   inkscape:window-y="0"
   inkscape:window-maximized="1"
   inkscape:current-layer="Layer_1" />
<circle
   style="fill:#FFD630;"
   cx="256"
   cy="256"
   r="256"
   id="circle2" />
<path
   style="fill:#F5BE18;"
   d="M507.055,307.101C483.318,423.974,379.961,512,256.165,512c-24.232,0-47.804-3.297-70.058-9.726  L67.42,383.588l12.033-18.627l-5.769-3.956l73.19-32.639l-32.804-32.804V276.77h80.938l-24.067-23.408l16.979-30.166l-6.923-6.264  l64.619-47.804l31.32,31.32l53.738-69.728l176.547,176.547L507.055,307.101z"
   id="path4" />
<path
   style="fill:#E84F4F;"
   d="M187.261,128.247h137.479c4.451,0,7.912,3.626,7.912,7.912v75.992c0,4.451-3.626,7.912-7.912,7.912  H187.261c-4.451,0-7.912-3.626-7.912-7.912V136.16C179.348,131.709,182.975,128.247,187.261,128.247z"
   id="path6" />
<path
   style="fill:#C94545;"
   d="M330.509,130.555c1.483,1.483,2.308,3.461,2.308,5.604v75.992c0,4.451-3.626,7.912-7.912,7.912  H187.426c-2.637,0-5.11-1.319-6.429-3.297l149.676-86.213h-0.164V130.555z"
   id="path8" />
<path
   style="fill:#E6E6E6;"
   d="M186.766,134.347h138.468v79.949H186.766V134.347z"
   id="path10" />
<path
   style="fill:#E84F4F;"
   d="M178.69,223.196h76.981h0.66h76.981c1.978,0,13.682,17.144,15.66,19.616  c1.319,1.483,0.494,2.637-1.483,2.637l-91.652-0.165l-91.652,0.165c-1.978,0-2.803-1.154-1.483-2.637  c1.978-2.308,13.682-19.616,15.66-19.616H178.69z"
   id="path12" />
<path
   style="fill:#C94545;"
   d="M170.777,253.528c-1.978,0-7.912-5.44-8.242-8.078l-0.165-1.154c61.816,0,125.61,0,187.426,0  l-0.165,1.154c-0.329,2.637-5.604,8.078-7.583,8.078C284.847,253.692,227.977,253.692,170.777,253.528z"
   id="path14" />
<path
   style="fill:#EBECEC;"
   d="M241.329,236.549h8.078h15.33h8.078l2.637,6.594h-10.715h-15.33h-10.715L241.329,236.549z"
   id="path16" />
<path
   style="fill:#C94545;"
   d="M214.13,220.229h10.055v2.967H214.13V220.229z M287.98,220.229h10.055v2.967H287.98V220.229z"
   id="path18" />
<path
   style="fill:#E84F4F;"
   d="M77.641,306.442h84.894c2.637,0,4.946,2.143,4.946,4.946v46.815c0,2.637-2.143,4.946-4.946,4.946  H77.641c-2.637,0-4.946-2.143-4.946-4.946v-46.815C72.695,308.749,74.838,306.442,77.641,306.442z"
   id="path20" />
<path
   style="fill:#C94545;"
   d="M165.831,307.926c0.824,0.824,1.483,2.143,1.483,3.461v46.815c0,2.637-2.143,4.946-4.946,4.946  H77.476c-1.649,0-3.132-0.824-3.957-2.143l92.312-53.244v0.165H165.831z"
   id="path22" />
<path
   style="fill:#E6E6E6;"
   d="M77.311,310.233H162.7v49.288H77.311V310.233z"
   id="path24" />
<path
   style="fill:#E84F4F;"
   d="M72.201,365.125h47.475h0.329h47.475c1.154,0,8.407,10.55,9.726,12.033  c0.824,0.989,0.329,1.649-0.989,1.649l-56.541-0.165l-56.541,0.165c-1.154,0-1.649-0.66-0.989-1.649  c1.154-1.483,8.407-12.033,9.726-12.033H72.201z"
   id="path26" />
<path
   style="fill:#C94545;"
   d="M67.42,383.753c-1.154,0-4.946-3.297-5.11-4.946l-0.165-0.66c38.079,0,77.476,0,115.554,0v0.66  c-0.165,1.649-3.461,4.946-4.78,4.946c-35.276,0.165-70.388,0.165-105.664,0H67.42z"
   id="path28" />
<path
   style="fill:#EBECEC;"
   d="M110.939,373.368h5.11h9.561h5.11l1.649,4.121h-6.594h-9.561h-6.594l1.649-4.121H110.939z"
   id="path30" />
<path
   style="fill:#C94545;"
   d="M94.125,363.313h6.264v1.814h-6.264V363.313z M139.622,363.313h6.264v1.814h-6.264V363.313z"
   id="path32" />
<path
   style="fill:#E84F4F;"
   d="M213.635,306.442h84.894c2.637,0,4.946,2.143,4.946,4.946v46.815c0,2.637-2.143,4.946-4.946,4.946  h-84.894c-2.637,0-4.946-2.143-4.946-4.946v-46.815C208.691,308.749,210.834,306.442,213.635,306.442z"
   id="path34" />
<path
   style="fill:#C94545;"
   d="M301.991,307.926c0.824,0.824,1.483,2.143,1.483,3.461v46.815c0,2.637-2.143,4.946-4.946,4.946  h-84.894c-1.649,0-3.132-0.824-3.956-2.143l92.312-53.244V307.926z"
   id="path36" />
<path
   style="fill:#E6E6E6;"
   d="M213.306,310.233h85.388v49.288h-85.388V310.233z"
   id="path38" />
<path
   style="fill:#E84F4F;"
   d="M208.36,365.125h47.475h0.329h47.475c1.154,0,8.407,10.55,9.726,12.033  c0.824,0.989,0.329,1.649-0.989,1.649l-56.541-0.165l-56.541,0.165c-1.154,0-1.649-0.66-0.989-1.649  c1.154-1.483,8.407-12.033,9.726-12.033H208.36z"
   id="path40" />
<path
   style="fill:#C94545;"
   d="M203.416,383.753c-1.154,0-4.946-3.297-5.11-4.946l-0.165-0.66c38.079,0,77.476,0,115.554,0v0.66  c-0.165,1.649-3.461,4.946-4.78,4.946c-35.276,0.165-70.388,0.165-105.664,0H203.416z"
   id="path42" />
<path
   style="fill:#EBECEC;"
   d="M246.934,373.368h5.11h9.561h5.11l1.649,4.121h-6.594h-9.561h-6.594l1.649-4.121H246.934z"
   id="path44" />
<path
   style="fill:#C94545;"
   d="M230.12,363.313h6.264v1.814h-6.264V363.313z M275.616,363.313h6.264v1.814h-6.264V363.313z"
   id="path46" />
<path
   style="fill:#E84F4F;"
   d="M349.631,306.442h84.894c2.637,0,4.946,2.143,4.946,4.946v46.815c0,2.637-2.143,4.946-4.946,4.946  h-84.894c-2.637,0-4.946-2.143-4.946-4.946v-46.815C344.685,308.749,346.828,306.442,349.631,306.442z"
   id="path48" />
<path
   style="fill:#C94545;"
   d="M437.986,307.926c0.824,0.824,1.483,2.143,1.483,3.461v46.815c0,2.637-2.143,4.946-4.946,4.946  H349.63c-1.649,0-3.132-0.824-3.957-2.143l92.312-53.244v0.165H437.986z"
   id="path50" />
<path
   style="fill:#E6E6E6;"
   d="M349.466,310.233h85.388v49.288h-85.388V310.233z"
   id="path52" />
<path
   style="fill:#E84F4F;"
   d="M344.356,365.125h47.474h0.329h47.474c1.154,0,8.407,10.55,9.726,12.033  c0.824,0.989,0.329,1.649-0.989,1.649l-56.541-0.165l-56.541,0.165c-1.154,0-1.649-0.66-0.989-1.649  c1.154-1.483,8.407-12.033,9.726-12.033H344.356z"
   id="path54" />
<path
   style="fill:#C94545;"
   d="M339.41,383.753c-1.154,0-4.946-3.297-5.11-4.946l-0.165-0.66c38.079,0,77.476,0,115.554,0v0.66  c-0.165,1.649-3.461,4.946-4.78,4.946c-35.276,0.165-70.388,0.165-105.664,0H339.41z"
   id="path56" />
<path
   style="fill:#EBECEC;"
   d="M382.929,373.368h5.11h9.561h5.11l1.649,4.121h-6.593h-9.561h-6.593l1.649-4.121H382.929z"
   id="path58" />
<path
   style="fill:#C94545;"
   d="M366.279,363.313h6.264v1.814h-6.264V363.313z M411.776,363.313h6.264v1.814h-6.264V363.313z"
   id="path60" />
<path
   style="fill:#FFFFFF;"
   d="M258.472,263.912v12.858c46.486,0,93.136,0,139.622,0c0,6.264,0,12.528,0,18.792  c-2.472,0-4.946,0-7.253,0v-11.374H258.472v12.858c-2.472,0-4.946,0-7.253,0v-12.858H121.16v11.374c-2.472,0-4.946,0-7.253,0  v-12.528v-6.264c45.826,0,91.488,0,137.314,0v-12.858C253.692,263.912,256.165,263.912,258.472,263.912z"
   id="path62" />
<g
   id="g64">
</g>
<g
   id="g66">
</g>
<g
   id="g68">
</g>
<g
   id="g70">
</g>
<g
   id="g72">
</g>
<g
   id="g74">
</g>
<g
   id="g76">
</g>
<g
   id="g78">
</g>
<g
   id="g80">
</g>
<g
   id="g82">
</g>
<g
   id="g84">
</g>
<g
   id="g86">
</g>
<g
   id="g88">
</g>
<g
   id="g90">
</g>
<g
   id="g92">
</g>
<metadata
   id="metadata1244"><rdf:RDF><cc:License
       rdf:about="http://artlibre.org/licence/lal"><cc:permits
         rdf:resource="http://creativecommons.org/ns#Reproduction" /><cc:permits
         rdf:resource="http://creativecommons.org/ns#Distribution" /><cc:permits
         rdf:resource="http://creativecommons.org/ns#DerivativeWorks" /><cc:requires
         rdf:resource="http://creativecommons.org/ns#ShareAlike" /><cc:requires
         rdf:resource="http://creativecommons.org/ns#Notice" /><cc:requires
         rdf:resource="http://creativecommons.org/ns#Attribution" /></cc:License><cc:Work
       rdf:about=""><cc:license
         rdf:resource="http://artlibre.org/licence/lal" /></cc:Work></rdf:RDF></metadata></svg>
