<?xml version="1.0" encoding="UTF-8" standalone="no"?>
<svg
   width="57"
   height="32"
   viewBox="0 0 15.08125 8.4666659"
   version="1.1"
   id="svg8"
   inkscape:version="1.1.2 (0a00cf5339, 2022-02-04, custom)"
   sodipodi:docname="no_preview.svg"
   inkscape:export-filename="D:\QtCreatorProjects\CineEncoder\Backup\cil-no-preview.png"
   inkscape:export-xdpi="245.96341"
   inkscape:export-ydpi="245.96341"
   xmlns:inkscape="http://www.inkscape.org/namespaces/inkscape"
   xmlns:sodipodi="http://sodipodi.sourceforge.net/DTD/sodipodi-0.dtd"
   xmlns="http://www.w3.org/2000/svg"
   xmlns:svg="http://www.w3.org/2000/svg"
   xmlns:rdf="http://www.w3.org/1999/02/22-rdf-syntax-ns#"
   xmlns:cc="http://creativecommons.org/ns#"
   xmlns:dc="http://purl.org/dc/elements/1.1/">
  <defs
     id="defs2">
    <rect
       x="30.881409"
       y="41.953732"
       width="66.656891"
       height="47.482407"
       id="rect903" />
  </defs>
  <sodipodi:namedview
     id="base"
     pagecolor="#ffffff"
     bordercolor="#666666"
     borderopacity="1.0"
     inkscape:pageopacity="0.0"
     inkscape:pageshadow="2"
     inkscape:zoom="8.0000002"
     inkscape:cx="24.999999"
     inkscape:cy="20.562499"
     inkscape:document-units="mm"
     inkscape:current-layer="layer1"
     inkscape:document-rotation="0"
     showgrid="false"
     inkscape:window-width="1920"
     inkscape:window-height="1019"
     inkscape:window-x="0"
     inkscape:window-y="0"
     inkscape:window-maximized="1"
     inkscape:pagecheckerboard="0"
     width="57mm"
     units="px" />
  <metadata
     id="metadata5">
    <rdf:RDF>
      <cc:Work
         rdf:about="">
        <dc:format>image/svg+xml</dc:format>
        <dc:type
           rdf:resource="http://purl.org/dc/dcmitype/StillImage" />
      </cc:Work>
    </rdf:RDF>
  </metadata>
  <g
     inkscape:label="Layer 1"
     inkscape:groupmode="layer"
     id="layer1">
    <g
       id="g841"
       inkscape:export-filename="/run/media/helg/WDC/PROJECTS/QtCreatorProjects/CineEncoder/cine-encoder/app/resources/icons/svg/g841.png"
       inkscape:export-xdpi="1347.7827"
       inkscape:export-ydpi="1347.7827">
      <path
         id="rect138"
         style="fill:#b3b3b3;stroke-width:0.271216"
         d="M 0.00334086,0.0045937 H 15.08038 v 8.46175 H 0.00334086 Z" />
      <path
         id="rect267"
         style="fill:#b3b3b3;stroke-width:0.284432"
         d="M 0.38718712,0.34679589 H 14.733232 V 8.114971 H 0.38718712 Z" />
      <g
         aria-label="PREVIEW NOT AVAILABLE"
         id="text34135"
         style="font-size:1.18053px;line-height:1.25;fill:#ffffff;stroke-width:0.0295134">
        <path
           d="m 0.93231657,7.5466719 h 0.097984 V 6.8123822 h 0.1452051 c 0.1192336,0 0.1995096,0.077915 0.1995096,0.1936069 0,0.1109699 -0.06611,0.1699964 -0.1877043,0.1699964 H 0.99488466 v 0.084998 H 1.1696031 c 0.1829821,0 0.3057573,-0.1086087 0.3057573,-0.2727024 0,-0.1570105 -0.115692,-0.2608971 -0.2880494,-0.2608971 H 0.93231657 Z"
           style="font-family:'Segoe UI';-inkscape-font-specification:'Segoe UI'"
           id="path835" />
        <path
           d="m 1.6288295,7.5466719 h 0.097984 V 6.8123822 H 1.888546 c 0.1168725,0 0.1853432,0.060207 0.1853432,0.1617326 0,0.1003451 -0.061387,0.1581911 -0.1735379,0.1581911 H 1.6913975 V 7.214943 H 1.888546 c 0.1699964,0 0.2856883,-0.1074283 0.2856883,-0.2585361 0,-0.1440247 -0.1062477,-0.2290228 -0.273883,-0.2290228 H 1.6288295 Z m 0.4757535,0 H 2.2214555 L 1.9947937,7.159458 H 1.8826434 Z"
           style="font-family:'Segoe UI';-inkscape-font-specification:'Segoe UI'"
           id="path837" />
        <path
           d="m 2.3607591,7.5466719 h 0.514711 V 7.4616737 H 2.458743 V 7.1653607 H 2.8435958 V 7.0803625 H 2.458743 V 6.8123822 h 0.4167271 v -0.084998 h -0.514711 z"
           style="font-family:'Segoe UI';-inkscape-font-specification:'Segoe UI'"
           id="path839" />
        <path
           d="m 3.2496977,7.5466719 h 0.095623 L 3.6439947,6.7273841 H 3.5448301 L 3.2721277,7.5124365 h 0.059026 L 3.0631739,6.7273841 H 2.9510236 Z"
           style="font-family:'Segoe UI';-inkscape-font-specification:'Segoe UI'"
           id="path841" />
        <path
           d="m 3.7620483,7.5466719 h 0.097984 V 6.7273841 h -0.097984 z"
           style="font-family:'Segoe UI';-inkscape-font-specification:'Segoe UI'"
           id="path843" />
        <path
           d="M 4.07725,7.5466719 H 4.5919611 V 7.4616737 H 4.175234 V 7.1653607 H 4.5600868 V 7.0803625 H 4.175234 V 6.8123822 H 4.5919611 V 6.7273841 H 4.07725 Z"
           style="font-family:'Segoe UI';-inkscape-font-specification:'Segoe UI'"
           id="path845" />
        <path
           d="m 4.9189674,7.5466719 h 0.097984 L 5.2577795,6.7757858 h -0.049582 l 0.2549945,0.7708861 h 0.094442 L 5.8008233,6.7273841 H 5.7028393 L 5.4879829,7.5006312 h 0.053124 L 5.294376,6.7332867 H 5.1845867 L 4.9473002,7.5006312 h 0.047221 L 4.7855676,6.7273841 H 4.6722367 Z"
           style="font-family:'Segoe UI';-inkscape-font-specification:'Segoe UI'"
           id="path847" />
        <path
           d="M 6.1833136,7.5466719 H 6.275395 V 6.8324512 H 6.257687 L 6.7428848,7.5466719 H 6.8514936 V 6.7273841 h -0.092081 v 0.7165817 h 0.018888 L 6.295464,6.7273841 H 6.1833136 Z"
           style="font-family:'Segoe UI';-inkscape-font-specification:'Segoe UI'"
           id="path849" />
        <path
           d="m 7.3992595,7.5549356 c 0.236106,0 0.394297,-0.1711769 0.394297,-0.4285324 0,-0.2455502 -0.1534689,-0.4096439 -0.3824917,-0.4096439 -0.2325644,0 -0.3872139,0.1699963 -0.3872139,0.4238103 0,0.2490918 0.1499273,0.414366 0.3754086,0.414366 z m 0.011805,-0.084998 c -0.1723574,0 -0.2868688,-0.1369415 -0.2868688,-0.3435342 0,-0.1936069 0.1097893,-0.3234652 0.2750635,-0.3234652 0.1758989,0 0.2939519,0.1345804 0.2939519,0.3376316 0,0.1971485 -0.1133309,0.3293678 -0.2821466,0.3293678 z"
           style="font-family:'Segoe UI';-inkscape-font-specification:'Segoe UI'"
           id="path851" />
        <path
           d="M 8.141813,7.5466719 H 8.239797 V 6.8123822 H 8.5136799 V 6.7273841 H 7.8691106 v 0.084998 H 8.141813 Z"
           style="font-family:'Segoe UI';-inkscape-font-specification:'Segoe UI'"
           id="path853" />
        <path
           d="M 8.7934645,7.5466719 H 8.8961706 L 9.1641509,6.7958548 H 9.1535262 L 9.4061596,7.5466719 H 9.5159489 L 9.2278996,6.7273841 H 9.1004023 Z M 8.948114,7.3034827 H 9.3577579 V 7.2184845 H 8.948114 Z"
           style="font-family:'Segoe UI';-inkscape-font-specification:'Segoe UI'"
           id="path855" />
        <path
           d="m 9.8323304,7.5466719 h 0.095623 L 10.226627,6.7273841 h -0.09916 L 9.8547605,7.5124365 H 9.913787 L 9.6458067,6.7273841 H 9.5336564 Z"
           style="font-family:'Segoe UI';-inkscape-font-specification:'Segoe UI'"
           id="path857" />
        <path
           d="m 10.244336,7.5466719 h 0.102707 l 0.26798,-0.7508171 h -0.01063 l 0.252634,0.7508171 h 0.109789 L 10.678772,6.7273841 h -0.127498 z m 0.15465,-0.2431892 h 0.409644 v -0.084998 h -0.409644 z"
           style="font-family:'Segoe UI';-inkscape-font-specification:'Segoe UI'"
           id="path859" />
        <path
           d="m 11.083692,7.5466719 h 0.09798 V 6.7273841 h -0.09798 z"
           style="font-family:'Segoe UI';-inkscape-font-specification:'Segoe UI'"
           id="path861" />
        <path
           d="m 11.398894,7.5466719 h 0.465129 V 7.4593127 H 11.496878 V 6.7273841 h -0.09798 z"
           style="font-family:'Segoe UI';-inkscape-font-specification:'Segoe UI'"
           id="path863" />
        <path
           d="m 11.895898,7.5466719 h 0.102706 l 0.267981,-0.7508171 h -0.01062 l 0.252633,0.7508171 h 0.10979 l -0.28805,-0.8192878 h -0.127497 z m 0.15465,-0.2431892 h 0.409644 v -0.084998 h -0.409644 z"
           style="font-family:'Segoe UI';-inkscape-font-specification:'Segoe UI'"
           id="path865" />
        <path
           d="m 12.735254,7.5466719 h 0.285688 c 0.188885,0 0.299855,-0.08854 0.299855,-0.2384671 0,-0.138122 -0.103887,-0.2290228 -0.260897,-0.2290228 h -0.2668 v 0.081457 h 0.256175 c 0.103887,0 0.171177,0.06611 0.171177,0.1676352 0,0.094442 -0.05667,0.1345804 -0.187704,0.1345804 h -0.19951 V 6.8112017 h 0.139303 c 0.125136,0 0.186523,0.046041 0.186523,0.1393025 0,0.072012 -0.04014,0.1133309 -0.148746,0.1534689 h 0.141663 c 0.06493,-0.028333 0.107428,-0.100345 0.107428,-0.1794405 0,-0.1251362 -0.100345,-0.1971485 -0.275063,-0.1971485 h -0.249092 z"
           style="font-family:'Segoe UI';-inkscape-font-specification:'Segoe UI'"
           id="path867" />
        <path
           d="m 13.478987,7.5466719 h 0.465128 V 7.4593127 H 13.576971 V 6.7273841 h -0.09798 z"
           style="font-family:'Segoe UI';-inkscape-font-specification:'Segoe UI'"
           id="path869" />
        <path
           d="m 14.076336,7.5466719 h 0.514711 V 7.4616737 H 14.17432 v -0.296313 h 0.384852 V 7.0803625 H 14.17432 V 6.8123822 h 0.416727 v -0.084998 h -0.514711 z"
           style="font-family:'Segoe UI';-inkscape-font-specification:'Segoe UI'"
           id="path871" />
      </g>
      <g
         inkscape:label="Image"
         id="g8"
         transform="matrix(0.03018995,0,0,0.03018995,5.2036965,1.1417239)">
        <path
           style="fill:#bcbcbc;fill-opacity:1;stroke:#c0c0c0;stroke-width:1px;stroke-linecap:butt;stroke-linejoin:miter;stroke-opacity:1"
           d="M 57.458162,10.271201 149.88637,23.655817 134.75813,127.54943 42.387712,114.57989 57.458162,10.271201"
           id="path1725"
           sodipodi:nodetypes="ccccc" />
        <path
           style="fill:#ffffff;fill-opacity:1;stroke:#c0c0c0;stroke-width:1px;stroke-linecap:butt;stroke-linejoin:miter;stroke-opacity:1"
           d="m 59.682552,89.681303 9.18334,-63.16795 64.432048,8.588461 -8.68397,64.273888 z"
           id="path2789" />
        <path
           style="fill:#dedede;fill-opacity:1;stroke:#dedede;stroke-width:1px;stroke-linecap:butt;stroke-linejoin:miter;stroke-opacity:1"
           d="m 43.956662,57.83771 -34.2819899,9.254033 22.7144499,74.452917 49.00431,-15.5636 -45.84953,-6.73021 z"
           id="path2999"
           sodipodi:nodetypes="cccccc" />
        <path
           style="fill:#bcbcbc;fill-opacity:1;stroke:#bcbcbc;stroke-width:1px;stroke-linecap:butt;stroke-linejoin:miter;stroke-opacity:1"
           d="M 64.356602,85.56076 66.077422,72.50438 84.815892,59.119764 94.928712,71.314636 125.56041,55.103564 119.356,93.066133 Z"
           sodipodi:nodetypes="ccccccc"
           id="path100334" />
      </g>
    </g>
  </g>
</svg>
