<?xml version="1.0" encoding="UTF-8" standalone="no"?>
<svg
   class="svg-icon"
   style="overflow:hidden;fill:currentColor"
   viewBox="0 0 210 210"
   version="1.1"
   id="svg4"
   sodipodi:docname="undo_history.svg"
   width="210"
   height="210"
   inkscape:version="1.1.2 (0a00cf5339, 2022-02-04, custom)"
   xmlns:inkscape="http://www.inkscape.org/namespaces/inkscape"
   xmlns:sodipodi="http://sodipodi.sourceforge.net/DTD/sodipodi-0.dtd"
   xmlns="http://www.w3.org/2000/svg"
   xmlns:svg="http://www.w3.org/2000/svg"
   xmlns:rdf="http://www.w3.org/1999/02/22-rdf-syntax-ns#"
   xmlns:cc="http://creativecommons.org/ns#">
  <defs
     id="defs8" />
  <sodipodi:namedview
     id="namedview6"
     pagecolor="#ffffff"
     bordercolor="#666666"
     borderopacity="1.0"
     inkscape:pageshadow="2"
     inkscape:pageopacity="0.0"
     inkscape:pagecheckerboard="0"
     showgrid="false"
     inkscape:zoom="2.4609375"
     inkscape:cx="62.577778"
     inkscape:cy="120.07619"
     inkscape:window-width="1920"
     inkscape:window-height="1019"
     inkscape:window-x="0"
     inkscape:window-y="0"
     inkscape:window-maximized="1"
     inkscape:current-layer="svg4" />
  <path
     d="m 109.75303,22.08564 c -30.673268,0 -58.060111,16.432106 -71.753532,42.175738 L 17.733234,43.995114 V 100.95975 H 74.697867 L 50.049708,76.311589 c 11.502474,-21.909475 33.411949,-36.69837 59.703322,-36.69837 36.15062,0 65.72841,29.577791 65.72841,65.728421 0,36.15063 -29.57779,65.72842 -65.72841,65.72842 -29.030058,0 -52.582742,-18.62305 -62.442006,-43.81894 H 29.235708 c 9.859263,35.05515 42.175738,61.34652 80.517322,61.34652 46.55762,0 83.25599,-37.79384 83.25599,-83.256 0,-45.462157 -37.79384,-83.256 -83.25599,-83.256 z M 96.607341,65.904588 v 44.914422 l 41.080259,24.64816 7.12058,-11.50247 -35.05515,-20.81401 V 66.452325 H 96.607341 Z"
     fill="#666666"
     id="path2"
     style="stroke-width:0.171168" />
  <metadata
     id="metadata849">
    <rdf:RDF>
      <cc:License
         rdf:about="http://artlibre.org/licence/lal">
        <cc:permits
           rdf:resource="http://creativecommons.org/ns#Reproduction" />
        <cc:permits
           rdf:resource="http://creativecommons.org/ns#Distribution" />
        <cc:permits
           rdf:resource="http://creativecommons.org/ns#DerivativeWorks" />
        <cc:requires
           rdf:resource="http://creativecommons.org/ns#ShareAlike" />
        <cc:requires
           rdf:resource="http://creativecommons.org/ns#Notice" />
        <cc:requires
           rdf:resource="http://creativecommons.org/ns#Attribution" />
      </cc:License>
      <cc:Work
         rdf:about="">
        <cc:license
           rdf:resource="http://artlibre.org/licence/lal" />
      </cc:Work>
    </rdf:RDF>
  </metadata>
</svg>
