<?xml version="1.0" encoding="UTF-8" standalone="no"?>
<svg
   width="210"
   height="210"
   viewBox="0 0 210 210"
   version="1.1"
   id="svg10"
   sodipodi:docname="warning.svg"
   inkscape:version="1.1.2 (0a00cf5339, 2022-02-04, custom)"
   xmlns:inkscape="http://www.inkscape.org/namespaces/inkscape"
   xmlns:sodipodi="http://sodipodi.sourceforge.net/DTD/sodipodi-0.dtd"
   xmlns="http://www.w3.org/2000/svg"
   xmlns:svg="http://www.w3.org/2000/svg"
   xmlns:rdf="http://www.w3.org/1999/02/22-rdf-syntax-ns#"
   xmlns:cc="http://creativecommons.org/ns#">
  <defs
     id="defs14" />
  <sodipodi:namedview
     id="namedview12"
     pagecolor="#ffffff"
     bordercolor="#666666"
     borderopacity="1.0"
     inkscape:pageshadow="2"
     inkscape:pageopacity="0.0"
     inkscape:pagecheckerboard="0"
     showgrid="false"
     inkscape:zoom="2.3201941"
     inkscape:cx="107.96511"
     inkscape:cy="106.24111"
     inkscape:window-width="1920"
     inkscape:window-height="1019"
     inkscape:window-x="0"
     inkscape:window-y="0"
     inkscape:window-maximized="1"
     inkscape:current-layer="svg10" />
  <path
     d="M 105.23478,0.85308115 C 94.99779,0.46646586 87.410982,8.8368968 84.124752,17.741523 57.047125,71.894702 29.989243,126.01463 2.9292818,180.13038 c -6.4207258,13.58351 6.0299537,30.33685 20.7857742,28.58045 27.126475,-0.0311 54.393253,-0.0103 81.519724,0 27.12544,-0.0103 54.39638,-0.0311 81.52182,0 14.75789,1.7564 27.20857,-14.99694 20.78577,-28.58045 C 180.47929,126.01463 153.4266,71.89886 126.34274,17.741523 123.05859,8.8368968 115.47177,0.46646586 105.23478,0.85308115 Z"
     fill="#f1c40f"
     id="path4"
     style="stroke-width:10.3929" />
  <path
     d="m 105.23478,63.210405 c -5.73687,0 -10.392883,4.652897 -10.392883,10.392887 l 5.196433,72.750208 h 10.3929 l 5.19644,-72.750208 c 0,-5.73999 -4.65601,-10.392887 -10.39289,-10.392887 z m 0,93.535985 c -5.73687,0 -10.392883,4.65601 -10.392883,10.39289 0,5.73688 4.656013,10.39289 10.392883,10.39289 5.73688,0 10.39289,-4.65601 10.39289,-10.39289 0,-5.73688 -4.65601,-10.39289 -10.39289,-10.39289 z"
     fill="#34495e"
     id="path6"
     style="stroke-width:10.3929" />
  <metadata
     id="metadata822">
    <rdf:RDF>
      <cc:License
         rdf:about="http://artlibre.org/licence/lal">
        <cc:permits
           rdf:resource="http://creativecommons.org/ns#Reproduction" />
        <cc:permits
           rdf:resource="http://creativecommons.org/ns#Distribution" />
        <cc:permits
           rdf:resource="http://creativecommons.org/ns#DerivativeWorks" />
        <cc:requires
           rdf:resource="http://creativecommons.org/ns#ShareAlike" />
        <cc:requires
           rdf:resource="http://creativecommons.org/ns#Notice" />
        <cc:requires
           rdf:resource="http://creativecommons.org/ns#Attribution" />
      </cc:License>
      <cc:Work
         rdf:about="">
        <cc:license
           rdf:resource="http://artlibre.org/licence/lal" />
      </cc:Work>
    </rdf:RDF>
  </metadata>
</svg>
